Coordinates
version=1
nRows=29
nColumns=38
inDegrees=no

Units are S.I. units (second, meters, Newtons, ...)
If the header above contains a line with 'inDegrees', this indicates whether rotational values are in degrees (yes) or radians (no).

endheader
time	pelvis_tilt	pelvis_list	pelvis_rotation	pelvis_tx	pelvis_ty	pelvis_tz	hip_flexion_r	hip_adduction_r	hip_rotation_r	knee_angle_r	ankle_angle_r	subtalar_angle_r	mtp_angle_r	hip_flexion_l	hip_adduction_l	hip_rotation_l	knee_angle_l	ankle_angle_l	subtalar_angle_l	mtp_angle_l	lumbar_extension	lumbar_bending	lumbar_rotation	arm_flex_r	arm_add_r	arm_rot_r	elbow_flex_r	pro_sup_r	wrist_flex_r	wrist_dev_r	arm_flex_l	arm_add_l	arm_rot_l	elbow_flex_l	pro_sup_l	wrist_flex_l	wrist_dev_l
0.93	0.134965	0.0552149	-0.0209885	0.807535	0.981136	-0.352782	0.372604	-0.0793847	-0.0789446	-1.50501	-0.00956232	-0.0275998	0.000498375	-0.120974	0.134299	0.0461608	-0.591145	0.418414	0.00864625	-0.0660926	-0.435885	-0.155666	-0.103697	-0.490669	-0.216261	-0.236225	1.54092	1.31355	-0.00754823	-0.0582694	0.0239752	-0.374173	0.0301167	1.55625	1.76572	0.0670611	-0.0451712
0.94	0.128866	0.04129	-0.0208435	0.808354	0.985375	-0.353056	0.402605	-0.0608289	-0.0911492	-1.44702	-0.000800462	-0.0275998	0.000498375	-0.173181	0.117689	0.0471505	-0.537252	0.376783	0.00864625	-0.0660926	-0.426943	-0.136748	-0.111718	-0.513088	-0.211254	-0.240853	1.54842	1.31127	-0.00754823	-0.0582694	0.0331955	-0.360975	0.0224353	1.58732	1.76616	0.0670611	-0.0451712
0.95	0.121579	0.0259053	-0.0217717	0.809647	0.989945	-0.353183	0.427314	-0.039931	-0.103871	-1.37602	0.00690332	-0.0275998	0.000498375	-0.222883	0.0993502	0.04443	-0.483221	0.32428	0.00864625	-0.0660926	-0.415663	-0.116392	-0.118207	-0.535618	-0.207169	-0.246199	1.55845	1.31001	-0.00754823	-0.0582694	0.0371689	-0.348991	0.0152053	1.62191	1.76669	0.0670611	-0.0451712
0.96	0.113179	0.00974773	-0.0236123	0.811348	0.994685	-0.353138	0.446379	-0.0171015	-0.115828	-1.29215	0.0134851	-0.0275998	0.000498375	-0.268898	0.0799446	0.037656	-0.43136	0.262357	0.00864625	-0.0660926	-0.402408	-0.0954469	-0.123588	-0.557406	-0.203721	-0.251848	1.5698	1.30964	-0.00754823	-0.0582694	0.0368286	-0.338919	0.00953522	1.65855	1.76707	0.0670611	-0.0451712
0.97	0.103783	-0.00633523	-0.0260246	0.813369	0.999425	-0.352921	0.459639	0.00688746	-0.125765	-1.19592	0.0190579	-0.0275998	0.000498375	-0.310141	0.0603017	0.0269824	-0.383972	0.192949	0.00864625	-0.0660926	-0.387601	-0.0748146	-0.128379	-0.577696	-0.20056	-0.257541	1.58146	1.31005	-0.00754823	-0.0582694	0.033176	-0.331175	0.00629887	1.69589	1.76696	0.0670611	-0.0451712
0.98	0.093561	-0.0213676	-0.0285785	0.815605	1.00399	-0.35257	0.46714	0.030908	-0.132598	-1.08855	0.0240319	-0.0275998	0.000498375	-0.345714	0.0413936	0.0130395	-0.343275	0.118386	0.00864625	-0.0660926	-0.371735	-0.0554416	-0.133108	-0.595886	-0.19731	-0.263191	1.59267	1.31117	-0.00754823	-0.0582694	0.0272133	-0.325927	0.00608883	1.73274	1.76604	0.0670611	-0.0451712
0.99	0.0828105	-0.0343341	-0.0308501	0.81795	1.00822	-0.352159	0.469111	0.0536016	-0.135562	-0.972145	0.0290806	-0.0275998	0.000498375	-0.375025	0.0242519	-0.00313894	-0.311261	0.041219	0.00864625	-0.0660926	-0.355408	-0.0382626	-0.138204	-0.611564	-0.193619	-0.268859	1.60293	1.31293	-0.00754823	-0.0582694	0.0198975	-0.323142	0.00921195	1.76807	1.76415	0.0670611	-0.0451712
1	0.072001	-0.0443203	-0.0325022	0.820307	1.01197	-0.351777	0.465944	0.0735745	-0.134345	-0.849805	0.0349476	-0.0275998	0.000498375	-0.397874	0.00986405	-0.0202231	-0.289577	-0.0359749	0.00864625	-0.0660926	-0.339339	-0.024118	-0.143911	-0.624515	-0.189207	-0.274698	1.61204	1.31524	-0.00754823	-0.0582694	0.0121075	-0.322664	0.0157152	1.80104	1.76144	0.0670611	-0.0451712
1.01	0.0617733	-0.0506566	-0.0333385	0.822606	1.0151	-0.351502	0.458189	0.0896198	-0.129186	-0.725628	0.0421925	-0.0275998	0.000498375	-0.414475	-0.000947478	-0.0367144	-0.279464	-0.110755	0.00864625	-0.0660926	-0.324359	-0.0136405	-0.15023	-0.634705	-0.183915	-0.280883	1.62003	1.31796	-0.00754823	-0.0582694	0.0046088	-0.324271	0.0254196	1.83095	1.75833	0.0670611	-0.0451712
1.02	0.0528848	-0.0530377	-0.0333259	0.824791	1.01755	-0.351389	0.446547	0.100917	-0.120902	-0.604519	0.0510099	-0.0275998	0.000498375	-0.425374	-0.00764287	-0.0511012	-0.281791	-0.180895	0.00864625	-0.0660926	-0.311371	-0.00713972	-0.156914	-0.642237	-0.177747	-0.287538	1.62712	1.32089	-0.00754823	-0.0582694	-0.00198984	-0.32771	0.0379481	1.85727	1.75546	0.0670611	-0.0451712
1.03	0.0461244	-0.0515983	-0.0325827	0.826815	1.01927	-0.351471	0.431866	0.107182	-0.110781	-0.491842	0.0611849	-0.0275998	0.000498375	-0.431308	-0.0100634	-0.0620544	-0.29714	-0.244402	0.00864625	-0.0660926	-0.301283	-0.0045181	-0.163506	-0.647284	-0.17089	-0.29468	1.63364	1.32375	-0.00754823	-0.0582694	-0.00728194	-0.332706	0.052749	1.87964	1.75354	0.0670611	-0.0451712
1.04	0.0422131	-0.0469228	-0.0313412	0.828598	1.02024	-0.351751	0.415065	0.108746	-0.100314	-0.392897	0.0721409	-0.0275998	0.000498375	-0.433075	-0.00849915	-0.0686506	-0.325855	-0.299546	0.00864625	-0.0660926	-0.294942	-0.00524146	-0.169416	-0.650032	-0.16371	-0.302202	1.63994	1.32624	-0.00754823	-0.0582694	-0.0110912	-0.338949	0.069133	1.89785	1.75316	0.0670611	-0.0451712
1.05	0.0417435	-0.0399778	-0.0298839	0.830119	1.02051	-0.35221	0.397033	0.106533	-0.0908238	-0.312301	0.0829976	-0.0275998	0.000498375	-0.431427	-0.00370679	-0.0705717	-0.36801	-0.344943	0.00864625	-0.0660926	-0.293056	-0.00838694	-0.17399	-0.65064	-0.156718	-0.309905	1.64636	1.32812	-0.00754823	-0.0582694	-0.0134674	-0.346072	0.0863307	1.91186	1.75461	0.0670611	-0.0451712
1.06	0.0450914	-0.0319814	-0.0284722	0.831345	1.02014	-0.352798	0.378531	0.101918	-0.0831615	-0.253447	0.0926403	-0.0275998	0.000498375	-0.427	0.00313593	-0.0682109	-0.42333	-0.379679	0.00864625	-0.0660926	-0.296109	-0.0127767	-0.176604	-0.649229	-0.150499	-0.317547	1.65315	1.32922	-0.00754823	-0.0582694	-0.0146523	-0.353649	0.103561	1.9217	1.75773	0.0670611	-0.0451712
1.07	0.0523531	-0.0242226	-0.0272899	0.832245	1.01916	-0.353448	0.360187	0.096489	-0.0775923	-0.218175	0.0998746	-0.0275998	0.000498375	-0.420223	0.0105218	-0.0626557	-0.491102	-0.403432	0.00864625	-0.0660926	-0.304262	-0.017153	-0.176735	-0.645879	-0.145644	-0.32491	1.66047	1.32954	-0.00754823	-0.0582694	-0.0150266	-0.361195	0.120098	1.92743	1.76199	0.0670611	-0.0451712
1.08	0.0632724	-0.0178976	-0.0264197	0.832792	1.01756	-0.354083	0.342558	0.0918265	-0.0739009	-0.206717	0.103731	-0.0275998	0.000498375	-0.41125	0.0167283	-0.0555692	-0.570141	-0.416529	0.00864625	-0.0660926	-0.317265	-0.0203435	-0.174008	-0.640624	-0.142691	-0.331814	1.66833	1.32916	-0.00754823	-0.0582694	-0.0150549	-0.368185	0.135314	1.9291	1.76656	0.0670611	-0.0451712
1.09	0.077201	-0.0139984	-0.0258525	0.832966	1.01529	-0.354625	0.326206	0.089326	-0.0716159	-0.217832	0.103881	-0.0275998	0.000498375	-0.399884	0.0199465	-0.0489633	-0.658811	-0.419912	0.00864625	-0.0660926	-0.334413	-0.0213813	-0.168211	-0.633433	-0.142089	-0.338116	1.67656	1.32824	-0.00754823	-0.0582694	-0.0152309	-0.374083	0.148688	1.92662	1.77047	0.0670611	-0.0451712
1.1	0.0931208	-0.0132512	-0.0255231	0.83276	1.01225	-0.355008	0.311707	0.0900968	-0.0702184	-0.249028	0.101026	-0.0275998	0.000498375	-0.385576	0.0184397	-0.0448736	-0.755115	-0.414983	0.00864625	-0.0660926	-0.354571	-0.0195711	-0.159298	-0.624181	-0.144189	-0.343657	1.68481	1.32697	-0.00754823	-0.0582694	-0.0160244	-0.37838	0.159799	1.91976	1.77292	0.0670611	-0.0451712
1.11	0.109748	-0.0160931	-0.0253562	0.832186	1.00831	-0.355186	0.299578	0.0949041	-0.0692538	-0.296849	0.0970517	-0.0275998	0.000498375	-0.367502	0.0107629	-0.0449559	-0.856789	-0.403372	0.00864625	-0.0660926	-0.376298	-0.0145219	-0.147365	-0.612642	-0.149235	-0.34822	1.69247	1.32551	-0.00754823	-0.0582694	-0.0178264	-0.380632	0.168301	1.90806	1.77342	0.0670611	-0.0451712
1.12	0.125714	-0.0226552	-0.025307	0.831253	1.00355	-0.355155	0.290132	0.10413	-0.0683617	-0.357168	0.0947869	-0.0275998	0.000498375	-0.344732	-0.00395591	-0.050063	-0.96139	-0.386661	0.00864625	-0.0660926	-0.398035	-0.00615984	-0.132618	-0.598508	-0.15736	-0.351507	1.69877	1.32396	-0.00754823	-0.0582694	-0.020898	-0.380504	0.173917	1.89089	1.77212	0.0670611	-0.0451712
1.13	0.13984	-0.0327439	-0.0253848	0.830028	0.998133	-0.354935	0.283308	0.117735	-0.0672616	-0.425446	0.0973726	-0.0275998	0.000498375	-0.316434	-0.0257283	-0.0599315	-1.06637	-0.366183	0.00864625	-0.0660926	-0.418307	0.00526728	-0.115356	-0.581459	-0.168577	-0.353158	1.70287	1.32241	-0.00754823	-0.0582694	-0.0253389	-0.377812	0.176454	1.86751	1.76988	0.0670611	-0.0451712
1.14	0.151225	-0.0458635	-0.0256357	0.828585	0.992397	-0.354542	0.278498	0.135212	-0.0657211	-0.496967	0.107441	-0.0275998	0.000498375	-0.282083	-0.0535066	-0.0731277	-1.16915	-0.342942	0.00864625	-0.0660926	-0.435952	0.0191735	-0.095972	-0.561253	-0.182755	-0.352803	1.70397	1.3209	-0.00754823	-0.0582694	-0.0310972	-0.372558	0.175832	1.83723	1.76832	0.0670611	-0.0451712
1.15	0.159406	-0.061178	-0.0261083	0.826962	0.986719	-0.353984	0.274518	0.15558	-0.0635169	-0.567104	0.12643	-0.0275998	0.000498375	-0.241589	-0.0852061	-0.087325	-1.26722	-0.317667	0.00864625	-0.0660926	-0.450245	0.0346697	-0.074976	-0.537842	-0.19961	-0.350138	1.7015	1.31944	-0.00754823	-0.0582694	-0.0380305	-0.364956	0.172092	1.79966	1.76944	0.0670611	-0.0451712
1.16	0.16438	-0.0775417	-0.0268126	0.82518	0.981369	-0.3533	0.269727	0.177419	-0.0604123	-0.631656	0.154276	-0.0275998	0.000498375	-0.195346	-0.11798	-0.0998638	-1.35819	-0.290943	0.00864625	-0.0660926	-0.460936	0.0506192	-0.0530047	-0.511469	-0.218692	-0.345005	1.69535	1.31804	-0.00754823	-0.0582694	-0.046004	-0.355439	0.165404	1.75494	1.77511	0.0670611	-0.0451712
1.17	0.166537	-0.0935648	-0.0277012	0.823286	0.976509	-0.352595	0.262251	0.198997	-0.056174	-0.687175	0.18952	-0.0275998	0.000498375	-0.144227	-0.148682	-0.108382	-1.43995	-0.263332	0.00864625	-0.0660926	-0.468217	0.0657486	-0.0307959	-0.482723	-0.239384	-0.337478	1.68597	1.31664	-0.00754823	-0.0582694	-0.0550033	-0.344634	0.156026	1.70402	1.78651	0.0670611	-0.0451712
1.18	0.166569	-0.107802	-0.0286712	0.821365	0.972304	-0.351985	0.250287	0.218479	-0.0506232	-0.731193	0.229714	-0.0275998	0.000498375	-0.0894797	-0.174384	-0.111331	-1.51073	-0.235418	0.00864625	-0.0660926	-0.472579	0.0787796	-0.00910612	-0.452528	-0.260926	-0.327916	1.67437	1.31517	-0.00754823	-0.0582694	-0.0652347	-0.3333	0.144248	1.6488	1.80362	0.0670611	-0.0451712
1.19	0.165264	-0.118979	-0.0296	0.819511	0.96896	-0.351505	0.232378	0.234171	-0.0436893	-0.762267	0.271912	-0.0275998	0.000498375	-0.0325855	-0.19281	-0.10822	-1.56914	-0.207807	0.00864625	-0.0660926	-0.474653	0.0885702	0.0113898	-0.422058	-0.282451	-0.316965	1.66204	1.31351	-0.00754823	-0.0582694	-0.0771776	-0.322238	0.130334	1.59204	1.82512	0.0670611	-0.0451712
1.2	0.163296	-0.126179	-0.0303867	0.817813	0.966657	-0.351139	0.207659	0.244767	-0.0354317	-0.779893	0.313104	-0.0275998	0.000498375	0.0249527	-0.202631	-0.0996488	-1.61424	-0.18105	0.00864625	-0.0660926	-0.474991	0.0942409	0.030194	-0.392603	-0.303066	-0.305506	1.65067	1.31154	-0.00754823	-0.0582694	-0.0915744	-0.312186	0.114468	1.53719	1.84857	0.0670611	-0.0451712
1.21	0.16108	-0.128855	-0.0309845	0.816352	0.965488	-0.350892	0.175977	0.249494	-0.0260722	-0.784338	0.3505	-0.0275998	0.000498375	0.0817927	-0.20355	-0.0870959	-1.64552	-0.155586	0.00864625	-0.0660926	-0.473918	0.0952897	0.0470336	-0.365417	-0.321939	-0.294529	1.64191	1.30922	-0.00754823	-0.0582694	-0.109327	-0.303723	0.096755	1.48788	1.87089	0.0670611	-0.0451712
